<?xml version="1.0" encoding="utf-8"?>
<!-- Generator: Adobe Illustrator 16.0.0, SVG Export Plug-In . SVG Version: 6.00 Build 0)  -->
<!DOCTYPE svg PUBLIC "-//W3C//DTD SVG 1.1//EN" "http://www.w3.org/Graphics/SVG/1.1/DTD/svg11.dtd">
<svg version="1.1" id="Layer_1" xmlns="http://www.w3.org/2000/svg" xmlns:xlink="http://www.w3.org/1999/xlink" x="0px" y="0px"
	 width="155.13px" height="24px" viewBox="0 0 155.13 24" enable-background="new 0 0 155.13 24" xml:space="preserve">
<g>
	<g id="XMLID_3_">
		<path fill="#FFFFFF" d="M80.633,13.332c2.92,6.851-6.766,11.193-10.797,5.902c0.167-0.646,0.209-1.42,0.433-2.016
			c0.965-0.468,1.769,0.619,2.734,1.009c1.626,0.666,4.146,0.786,4.895-0.72c0.517-4.805-6.004-4.709-9.501-6.768
			c-1.775-1.043-4.326-4.061-3.167-6.909c0.858-2.111,6.634-5.352,9.358-3.025c1.193,1.021,1.464,3.438,0.864,5.761
			c-0.93,0.07-1.44-0.283-2.16-0.433c-0.27-1.632-0.588-3.089-1.583-3.311c-1.271-0.283-3.396,1.057-3.455,2.303
			c-0.061,1.206,1.276,2.267,2.016,2.735C73.068,9.637,79.141,9.829,80.633,13.332z"/>
		<path fill="#FFFFFF" d="M60.623,16.499c1.181,0.696,2.765,1.584,2.302,3.456c-4.636,2.022-9.267-0.971-9.501-5.615
			c-0.328-0.438-1.104-0.432-1.295-1.008c-0.174-1.415,0.408-2.087,1.151-2.592c-0.324-1.026,0.073-2.496,0.144-3.599
			c0.013-0.685-0.659-0.685-0.72-1.296c0.198-1.932,2.478-4.326,4.032-2.303c1.854-0.043,4.169-0.408,5.759,0.144
			c-0.192,0.685,0.354,1.368,0.144,1.583c-1.08,1.512-4.073,1.115-5.759,2.015c0.114,1.164-0.204,2.19,0,3.023
			c1.517,0.139,2.525-0.714,3.887-0.288c0.235,0.679,0.558,1.267,0.433,2.305c-1.164,0.659-2.634,1.012-4.175,1.294
			C56.561,16.284,59.062,18.449,60.623,16.499z"/>
		<path fill="#FFFFFF" d="M49.536,6.998c0.553,3.834,2.226,8.668,0.577,12.526c-0.528-0.066-1.044,0.276-1.44,0.719
			c-1.05-3.359-1.217-7.605-2.16-11.086c-2.812,1.268-2.963,5.195-5.47,6.768c-1.309-0.42-3.079-0.378-3.312-1.871
			c-0.785,0.564-0.378,2.309-0.863,3.166c-1.182-0.114-2.591,0-3.166-0.72c0.167-1.701,0.479-3.904,0.863-6.334
			c0.264-1.674,0.619-5.128,2.303-5.039c1.59,0.083,2.597,4.588,3.022,6.046c2.616-2.177,3.648-5.951,7.344-7.055
			C48.084,4.995,48.722,6.086,49.536,6.998z"/>
		<path fill="#FFFFFF" d="M32.98,13.045c0.023,0.312-0.51,0.064-0.72,0.144c0.114,0.252,0.059,0.941-0.145,1.583
			c-1.098,0.104-2.124,0.276-3.166,0.433c0.432,2.64,2.068,4.073,2.014,7.196c-0.33,0.446-1.001,0.535-1.008,1.297
			c-1.217,0.211-1.433-0.582-2.303-0.719c-0.511-2.705-1.259-5.172-2.304-7.344c-2.339-0.035-4.055,0.554-6.19,0.721
			c-1.091,1.986-0.329,5.812-2.159,7.057c-1.164-0.038-1.871-0.528-2.448-1.154c-0.221-2.369,1.452-4.14,1.009-6.189
			c-0.115-0.535-0.949-1.051-1.009-1.584c-0.15-1.272,1.027-2.04,2.016-2.449c0.786-3.772,1.283-7.834,3.167-10.508
			c0.216,0.239,1.085-0.258,1.295-0.145c3.325,1.774,4.932,6.593,6.335,10.222C29.447,11.875,32.253,11.418,32.98,13.045z
			 M23.623,11.893c-0.577-1.967-1.338-3.75-2.448-5.183c-0.433,1.698-1.421,3.545-1.008,5.616
			C21.131,11.995,22.577,12.144,23.623,11.893z"/>
		<path fill="#FFFFFF" d="M13.401,4.982c-0.332,0.772-0.848,1.368-1.154,2.159c-0.923-0.108-1.463,0.168-2.303,0.144
			c0.613,3.635,0.301,10.085-2.878,11.807c-2.19,1.188-7.458-0.301-5.616-3.457c1.896-0.196,2.053,1.628,3.744,1.154
			c1.979-0.553,2.405-7.225,1.153-9.215C4.582,7.058,0.37,9.289,0.011,6.853c-0.144-0.971,1.152-2.435,2.592-2.735
			c1.588-0.329,3.701,0.354,4.893-0.575C9.201,4.285,12.11,3.824,13.401,4.982z"/>
	</g>
	<path fill="#FFFFFF" d="M152.745,18.961c1.182,0.691,2.766,1.584,2.303,3.455c-4.637,2.021-9.268-0.971-9.502-5.614
		c-0.328-0.438-1.102-0.433-1.295-1.007c-0.174-1.416,0.408-2.089,1.152-2.594c-0.326-1.025,0.07-2.494,0.143-3.598
		c0.012-0.685-0.66-0.685-0.719-1.296c0.197-1.932,2.477-4.324,4.029-2.304c1.855-0.041,4.17-0.407,5.76,0.145
		c-0.193,0.685,0.354,1.368,0.143,1.584c-1.08,1.51-4.072,1.114-5.756,2.014c0.111,1.165-0.205,2.191,0,3.025
		c1.518,0.138,2.523-0.715,3.887-0.289c0.232,0.679,0.559,1.266,0.432,2.303c-1.164,0.66-2.635,1.015-4.176,1.297
		C148.682,18.745,151.184,20.912,152.745,18.961z"/>
	<path fill="#FFFFFF" d="M131.581,2.261c5.248,0.887,11.26,2.154,10.941,8.207c-0.043,0.773-0.348,1.223-0.576,2.015
		c-1.861,1.104-4.822,1.141-7.488,0.719c-0.441,3.523,0.564,6.822,0.291,10.656c-0.66,0.311-1.381-0.163-2.16,0.143
		c-1.283-3.562-1.115-8.577-1.584-12.958c-1.248-1.169-2.844-1.997-2.879-3.887C128.077,4.93,130.213,3.436,131.581,2.261z
		 M139.356,9.746c-0.824-2.105-2.707-3.149-5.473-3.311c-0.047,1.249,0.078,2.32,0.289,3.311
		C135.43,10.521,138.059,10.461,139.356,9.746z"/>
	<path fill="#FFFFFF" d="M127.405,12.627c-1.477-0.325-0.125,1-1.008,1.584c-1.02,0.131-2.031,0.271-3.021,0.431
		c0.438,2.683,2.115,4.122,2.014,7.343c-0.709,0.06-0.75,0.786-1.15,1.153c-1.117,0.108-1.488-0.523-2.16-0.864
		c-0.564-2.605-1.26-5.075-2.303-7.198c-2.395-0.042-4.117,0.587-6.336,0.72c-0.996,1.955-0.037,6.604-2.158,7.053
		c-0.547,0.122-2.096-0.558-2.305-1.294c-0.402-1.392,1.318-3.492,1.008-5.759c-0.156-1.141-1.039-1.592-1.008-2.305
		c0.049-1.139,1.758-1.817,2.158-2.304c0.219-1.643,0.557-3.748,1.152-5.902c0.457-1.619,1.16-4.295,2.711-4.463
		c0.104,0,0.211,0,0.314,0c0.096,0,0.189,0,0.285,0c3.541,1.933,4.494,6.449,6.193,10.222
		C123.891,11.342,126.84,10.79,127.405,12.627z M118.047,11.332c-0.576-1.968-1.338-3.75-2.449-5.184
		c-0.432,1.697-1.42,3.544-1.006,5.616C115.557,11.433,117.002,11.583,118.047,11.332z"/>
	<path fill="#FFFFFF" d="M115.313,0.82c-0.104,0-0.211,0-0.314,0C115.102,0.809,115.204,0.809,115.313,0.82z"/>
	<path fill="#FFFFFF" d="M98.036,8.452c1.393,4.661,9.484,7.672,9.213,13.388c-0.035,0.793-0.977,1.314-1.871,1.729
		c-1.086-0.323-0.961-1.292-1.295-2.016c-1.721-3.708-5.67-5.567-7.773-8.927c-0.02,2.812-0.379,5.285-3.025,5.471
		c-0.113-3.779,0.09-8.59-1.295-11.23c-0.344-0.652-1.152-1.291-1.152-1.872c-0.008-1.272,2.023-2.448,3.311-1.583
		c1.043,0.703,0.68,2.058,1.152,3.311c2.742-0.954,3.654-3.737,7.199-3.886C102.469,6.167,99.458,6.514,98.036,8.452z"/>
</g>
</svg>
